# xmcd CD database file
#
# Track frame offsets:
#	150
#	11588
#	24218
#	39431
#	58130
#	72793
#	86033
#	103702
#	118156
#	132597
#	156667
#	170380
#	187851
#	203795
#	217275
#	234329
#
# Disc length: 3315 seconds
#
# Revision: 0
# Processed by: cddbd v1.5.1PL0 Copyright (c) Steve Scherf et al.
# Submitted via: CDex 1.51
#
DISCID=e20cf110
DTITLE=Various Artist - Country Music From Germany No. 1
DYEAR=2004
DGENRE=Country
TTITLE0=Ocean Of Love - Mandy Strobel
TTITLE1=Five Lake County - Montana Highway
TTITLE2=Cowboy Band - Rubber Duck
TTITLE3=Run With Me - Deep West
TTITLE4=The Thunder Rolls - Flatliners
TTITLE5=Horses Run Free - Silverwood
TTITLE6=The Day They Met - Mark Merritt
TTITLE7=Burned By An Old Flame - Mandy Stobel
TTITLE8=Dancehall Saturday Night - Willie Jones
TTITLE9=Try It Out - Deep West
TTITLE10=Times Do Change - Mark Merritt
TTITLE11=Already In Love - Silverwood
TTITLE12=Oklahoma Borderline - Rubber Duck
TTITLE13=River Road - Willie Jones
TTITLE14=If Tomorrow Never Comes - Flatliners
TTITLE15=You Saved My Life In A Country Pub - Montana Highway
EXTD=YEAR: 2004
EXTT0=
EXTT1=
EXTT2=
EXTT3=
EXTT4=
EXTT5=
EXTT6=
EXTT7=
EXTT8=
EXTT9=
EXTT10=
EXTT11=
EXTT12=
EXTT13=
EXTT14=
EXTT15=
PLAYORDER=
